<?xml version="1.0" encoding="utf-8"?>
<!-- Generator: Adobe Illustrator 25.2.0, SVG Export Plug-In . SVG Version: 6.00 Build 0)  -->
<svg xmlns="http://www.w3.org/2000/svg" xmlns:xlink="http://www.w3.org/1999/xlink" version="1.1" x="0px" y="0px" width="395px" height="85px" viewBox="0 0 395 85" style="enable-background:new 0 0 395 85;" xml:space="preserve">
<style type="text/css">
	.st0{fill:#EC1C24;}
	.st1{fill:#2E3191;}
	.st2{fill:#161D4F;}
	.st3{fill:#6A86CE;}
	.st4{fill:#F3F7FF;}
	.st5{opacity:0.9;fill:#B2B2B2;}
	.st6{opacity:0.9;fill:#565656;}
	.st7{fill:#353535;}
	.st8{fill:#FF1FE4;}
	.st9{opacity:0.05;clip-path:url(#SVGID_2_);fill:#2E358E;}
	.st10{opacity:0.9;fill:#2E358E;}
	.st11{fill:none;stroke:#6A86CE;stroke-linecap:round;stroke-linejoin:round;stroke-miterlimit:10;}
	.st12{fill:#FFFFFF;}
	.st13{fill:#2E358E;}
	.st14{opacity:0.95;fill:#F3F7FF;}
	.st15{opacity:0.9;fill:#FFFFFF;stroke:#B2B2B2;stroke-width:0.75;stroke-miterlimit:10;}
	.st16{fill:#8298D8;}
	.st17{fill:none;stroke:#161D4F;stroke-miterlimit:10;}
	.st18{opacity:0.12;clip-path:url(#SVGID_4_);fill:#2E358E;}
	.st19{fill:none;stroke:#FFFFFF;stroke-miterlimit:10;}
	.st20{fill:#EC1C24;stroke:#EC1C24;stroke-miterlimit:10;}
	.st21{clip-path:url(#SVGID_6_);fill:#F3F7FF;}
	.st22{clip-path:url(#SVGID_6_);}
	.st23{clip-path:url(#SVGID_8_);fill:#F3F7FF;}
	.st24{clip-path:url(#SVGID_8_);}
	.st25{clip-path:url(#SVGID_10_);fill:#F3F7FF;}
	.st26{clip-path:url(#SVGID_10_);}
	.st27{clip-path:url(#SVGID_12_);fill:#F3F7FF;}
	.st28{clip-path:url(#SVGID_12_);}
	.st29{clip-path:url(#SVGID_14_);fill:#F3F7FF;}
	.st30{clip-path:url(#SVGID_14_);}
	.st31{clip-path:url(#SVGID_16_);fill:#F3F7FF;}
	.st32{clip-path:url(#SVGID_16_);}
	.st33{clip-path:url(#SVGID_18_);fill:#F3F7FF;}
	.st34{clip-path:url(#SVGID_18_);}
	.st35{clip-path:url(#SVGID_20_);fill:#F3F7FF;}
	.st36{clip-path:url(#SVGID_20_);}
	.st37{fill:#FFB96C;}
	.st38{opacity:0.9;}
	.st39{fill:#B2B2B2;}
	.st40{fill:#EF626D;}
	.st41{fill:#606060;}
	.st42{fill:#4D4D4D;}
	.st43{fill:#A9BBEA;}
	.st44{fill:#F9BEA5;}
	.st45{fill:#EDAF98;}
	.st46{fill:#1F2575;}
	.st47{fill:#F9D18B;}
	.st48{fill:#C7E2FC;}
	.st49{fill:#EBF7FE;}
	.st50{fill:#8892A0;}
	.st51{clip-path:url(#SVGID_22_);fill:#FFFFFF;}
	.st52{clip-path:url(#SVGID_22_);}
	.st53{opacity:0.3;fill:#FAFBFC;enable-background:new    ;}
	.st54{fill:#C6C6C6;}
	.st55{fill:#D3EFFB;}
	.st56{fill:#B1E4F9;}
	.st57{clip-path:url(#SVGID_24_);fill:#FFFFFF;}
	.st58{clip-path:url(#SVGID_24_);}
	.st59{clip-path:url(#SVGID_26_);fill:#FFFFFF;}
	.st60{clip-path:url(#SVGID_26_);}
	.st61{clip-path:url(#SVGID_28_);fill:#F3F7FF;}
	.st62{clip-path:url(#SVGID_28_);}
	.st63{clip-path:url(#SVGID_30_);fill:#F3F7FF;}
	.st64{clip-path:url(#SVGID_30_);}
	.st65{clip-path:url(#SVGID_32_);fill:#F3F7FF;}
	.st66{clip-path:url(#SVGID_32_);}
	.st67{clip-path:url(#SVGID_34_);fill:#F3F7FF;}
	.st68{clip-path:url(#SVGID_34_);}
	.st69{opacity:0.05;clip-path:url(#SVGID_36_);fill:#2E358E;}
	.st70{clip-path:url(#SVGID_38_);fill:#FFFFFF;}
	.st71{clip-path:url(#SVGID_38_);}
	.st72{clip-path:url(#SVGID_40_);fill:#F3F7FF;}
	.st73{clip-path:url(#SVGID_40_);}
	.st74{clip-path:url(#SVGID_42_);fill:#F3F7FF;}
	.st75{clip-path:url(#SVGID_42_);}
	.st76{clip-path:url(#SVGID_44_);fill:#F3F7FF;}
	.st77{clip-path:url(#SVGID_44_);}
	.st78{clip-path:url(#SVGID_46_);fill:#F3F7FF;}
	.st79{clip-path:url(#SVGID_46_);}
	.st80{display:none;}
	.st81{display:inline;}
	.st82{fill:#16FF92;}
</style>
<g id="Layer_1">
	<g>
		<path class="st13" d="M376.32,25.53c-2.26-2.6-5.52-4.03-9.18-4.03c-0.8,0-1.63,0.07-2.47,0.2c-1.37,0.22-2.6,0.64-3.78,1.08    c-1.31-1.09-2.93-1.88-5.17-1.88c-1.32,0-2.72,0.28-4.04,0.57l-0.66,0.15c-2.22,0.51-4.52,1.03-6.53,1.03    c-0.53,0-1.03-0.04-1.49-0.11c-1.15-0.19-2.11-0.28-3-0.28c-1.46,0-2.78,0.25-3.95,0.76c-0.15-0.21-0.31-0.41-0.48-0.61    c-1.51-1.76-3.54-2.69-5.85-2.69c-1.45,0-2.85,0.36-4.14,0.74c-2.53,0.76-4.46,1.09-6.25,1.09c-1.51,0-2.91-0.25-4.27-0.77    c-1.04-0.4-2.19-0.59-3.52-0.59c-1.32,0-2.61,0.2-3.46,0.35c-5.9,1.04-10.59,4.23-14.78,7.52c-2.27,1.78-4.33,3.66-6.17,5.64    c0.01-1.89-0.35-4.07-1.72-6.22c-3.22-5.08-8.55-8.11-14.26-8.11c-2.26,0-4.51,0.46-6.69,1.37c-2.19,0.92-4.23,2.07-6.21,3.2    c-0.16,0.09-0.31,0.18-0.47,0.26c-3.53-3.14-7.47-4.73-11.75-4.73c-3.45,0-7.1,1.03-11.08,3.13c-1.4-1.38-3.06-2.37-5.42-2.37    c-1.14,0-2.39,0.23-4.16,0.76c-3.17,0.95-5.82,1.39-8.33,1.39c-0.58,0-1.17-0.02-1.74-0.07c-0.22-0.02-0.46-0.03-0.69-0.03    c-2.23,0-4.26,0.88-5.27,1.4c-0.25,0.13-0.48,0.27-0.7,0.42c-0.26-0.33-0.54-0.65-0.85-0.96c-0.01-0.01-0.01-0.01-0.02-0.02    c1.22-1.12,2.47-2.38,3.51-3.84c2.28-3.2,2.86-6.98,1.61-10.38c-1.23-3.33-4.03-5.77-7.7-6.7c-1.12-0.28-2.34-0.42-3.73-0.42    c-0.68,0-1.41,0.03-2.24,0.1c-5.51,0.44-10.07,2.61-13.41,6.35c-1.66-2.82-4.46-4.54-7.85-4.54c-0.92,0-1.86,0.13-2.79,0.39    c-3.23,0.89-6.45,1.01-9.18,1.01c-0.64,0-1.33-0.01-2.17-0.02c-0.06,0-0.12,0-0.18,0c-2.76,0-5.35,1.21-7.04,2.23    c-1.81,1.09-3.01,2.76-3.37,4.7c-0.38,2.01,0.16,4.09,1.52,5.86c0.85,1.1,1.91,1.73,2.77,2.24c0.05,0.03,0.09,0.06,0.14,0.08    c-0.05,0.14-0.1,0.28-0.16,0.42c-1.04-0.16-2.07-0.24-3.1-0.24c-4.43,0-8.8,1.48-12.99,4.39c-4.22,2.93-8.59,6.16-12.28,10    c0.1-6.98-3.85-12.44-10.32-14.09c-1.41-0.36-2.96-0.54-4.6-0.54c-1.74,0-3.53,0.2-5.31,0.6c-2.12,0.47-3.95,1.4-5.71,2.34    c-1.5-1.62-3.54-2.86-6.61-2.86c-1.07,0-2.26,0.14-3.76,0.44c-3.62,0.73-7.29,1.24-10.93,1.53c-1.1,0.09-2.48,0.2-3.83,0.69    c-1.24-1.51-3.09-2.79-5.9-2.79c-1.16,0-2.47,0.21-4.12,0.66c-1.91,0.52-3.78,0.87-5.56,1.05c-0.44,0.04-1,0.09-1.54,0.09    c-0.75,0-1.1-0.1-1.25-0.16c-2.09-0.86-4.22-1.3-6.33-1.3c-1.69,0-3.39,0.28-5.05,0.83c-8.75,2.9-16.32,8.65-22.48,17.06    c-5.83,7.96-8.37,15.94-7.77,24.4c0.55,7.8,5.21,13.27,12.79,15.02c1.26,0.29,2.55,0.44,3.83,0.44c2.64,0,5.35-0.63,8.06-1.86    c0.52-0.24,1.04-0.49,1.54-0.74c1.18,1.41,2.93,2.79,5.56,2.79c1.19,0,2.47-0.29,4.03-0.91c2.21-0.88,4.62-1.44,6.48-1.84    c0.74-0.16,1.65-0.17,2.51-0.17l0.42,0l0.44,0c1.42,0,3.43,0,5.47-0.78c1.33,1.92,3.36,3.79,6.33,3.79c0.97,0,1.97-0.21,2.96-0.63    c1.79-0.75,3.79-0.98,5.89-1.22c1.32-0.15,2.69-0.31,4.09-0.6c0.69-0.14,1.29-0.32,1.85-0.55c1.21-0.49,2.22-1.11,3.04-1.87    c0.29,0.47,0.62,0.91,1,1.32c1.61,1.73,3.9,2.68,6.45,2.68c0.93,0,1.88-0.13,2.82-0.38l0.2-0.05c0.96-0.25,2.16-0.57,3.28-1.32    c1.59-1.07,3.41-1.53,6.11-1.53c0.33,0,0.67,0.01,1.04,0.02c0.17,0.01,0.33,0.01,0.5,0.01c1.93,0,3.98-0.39,5.94-1.14    c0.45-0.17,0.98-0.42,1.53-0.79c2.16,2.8,5.64,5.75,11.1,5.75c0.08,0,0.16,0,0.24,0c2.96-0.05,5.32-0.36,7.43-0.99    c1.94-0.58,3.78-1.38,5.55-2.16c1.07,1.55,2.98,3.42,6.17,3.42c1.12,0,2.34-0.22,3.82-0.7c1.92-0.62,4.16-1,6.48-1.1    c3.54-0.15,6.35-1.45,8.18-3.73c0.67,1.09,1.56,2.09,2.65,2.96c2.15,1.71,4.84,2.69,7.4,2.69c1.54,0,2.96-0.34,4.23-1.01    c2.29-1.22,3.67-1.47,4.42-1.47l0.06,0c0.08,0,0.15,0,0.23,0c3.23,0,6.02-1.24,7.87-3.48c0.59-0.72,1.07-1.54,1.43-2.41    c0.2,1.9,0.94,3.61,2.17,4.97c1.71,1.9,4.2,2.94,7,2.94c0.95,0,1.93-0.12,2.91-0.37c0.71-0.18,1.41-0.37,2.1-0.55    c2.07-0.56,4.02-1.09,5.85-1.16c2.38-0.09,4.46-0.92,6.07-2.42c2.03,3.73,5.2,4.34,7.06,4.34c1.29,0,2.68-0.28,4.15-0.84    c2.05-0.78,4.27-1.38,6.59-1.78c2.26-0.39,4.57-0.63,7.02-0.89c0.43-0.05,0.87-0.09,1.32-0.14c1.41,1.76,3.79,3.94,7.26,3.94    c1.76,0,3.58-0.55,5.56-1.67c2-1.13,4.15-1.66,6.77-1.66c0.32,0,0.66,0.01,1,0.02c0.23,0.01,0.46,0.02,0.69,0.02    c2.72,0,5.06-0.77,6.95-2.27c2.56,2.92,5.98,4.62,10.22,5.05c0.69,0.07,1.4,0.11,2.08,0.11c3.27,0,6.51-0.81,9.81-2.45    c1.2,1.46,2.93,2.81,5.48,2.81c1.27,0,2.62-0.34,4.24-1.06c2.77-1.24,5.29-1.84,7.7-1.84c0.31,0,0.63,0.01,0.94,0.03    c0.44,0.03,0.87,0.04,1.28,0.04c2.03,0,3.86-0.36,5.49-1.07c0.37,0.8,0.85,1.49,1.44,2.09c0.94,0.96,2.63,2.1,5.32,2.1    c1.5,0,3.13-0.34,5-1.05c2.73-1.04,5.32-1.7,7.69-1.98c5.26-0.61,8.4-4.02,8.4-9.1c0-1.74,0.03-3.74,0.36-5.51    c0.81-4.28,2.64-8.28,5.33-11.68c1.5,0.5,3.06,1,4.78,1c0.17,0,0.35-0.01,0.52-0.02c6.55-0.4,12.43-5.93,13.37-12.57    C380.06,32.93,378.93,28.54,376.32,25.53z"/>
		<g>
			<g>
				<g>
					<path class="st12" d="M208.53,17.31c3.36-4.73,1.26-10.44-4.14-11.8c-1.55-0.39-3.26-0.36-4.87-0.23       c-6.08,0.49-10.76,3.39-13.6,8.8c-2.11,4.01-0.49,8.15,3.66,10.01c1.06,0.48,2.22,0.72,3.31,1.07       c-3.72,0.93-7.77-0.8-11.43,1.71c1.67-4.22,2.76-8.34,2.59-12.68c-0.2-5.04-3.57-8.04-7.95-6.83       c-4.08,1.13-8.15,1.19-12.32,1.11c-1.8-0.04-3.8,0.78-5.4,1.74c-2.1,1.27-2.41,3.61-0.91,5.57c0.71,0.92,1.99,1.38,2.96,2.13       c0.47,0.36,1.23,1.02,1.14,1.34c-0.51,1.79-1.24,3.52-1.91,5.32c-6.08-1.86-11.5-0.34-16.27,2.97       c-4.46,3.1-8.95,6.43-12.57,10.43c-6.26,6.91-10.36,14.96-9.38,24.69c-0.69-0.28-1.38-0.7-2.12-0.82       c-1.43-0.22-2.05-1.01-1.7-2.33c0.43-1.62,0.91-3.27,1.64-4.77c2.95-6.06,5.87-12.09,6.46-18.97       c0.48-5.69-2.22-10.42-7.7-11.82c-2.62-0.67-5.66-0.51-8.33,0.08c-2.6,0.58-4.98,2.19-7.48,3.37       c-2.24-3.71-4.11-4.35-8.68-3.43c-3.73,0.75-7.53,1.28-11.33,1.59c-2.11,0.17-3.99,0.32-5.13,2.49       c-1.77-4.51-3.49-5.28-8.1-4.03c-1.99,0.54-4.05,0.94-6.1,1.15c-1.46,0.15-3.12,0.23-4.42-0.3c-3.02-1.24-6.01-1.38-9.01-0.38       c-8.73,2.9-15.46,8.54-20.81,15.84c-4.8,6.55-7.72,13.82-7.13,22.14C21.93,68.82,25.5,73,31.64,74.41       c3.38,0.78,6.61,0.21,9.72-1.2c1.36-0.62,2.67-1.35,4.04-2.05c0.34,0.53,0.6,0.95,0.88,1.36c1.82,2.66,3.37,2.95,6.37,1.76       c2.25-0.9,4.65-1.5,7.03-2c3.64-0.77,7.76,0.87,10.82-2.51c1.81,4.31,3.85,6.11,6.7,4.92c3.49-1.47,7.1-1.29,10.62-2.02       c0.43-0.09,0.86-0.21,1.26-0.37c2.64-1.07,3.58-2.74,3.39-5.6c-0.09-1.36,0.05-2.76,0.24-4.12c0.79-5.42,4.83-13.74,7.85-16.47       c-0.92,3.03-2.07,6.17-2.78,9.4c-0.95,4.28-1.89,8.61-2.2,12.96c-0.3,4.19,3.14,6.52,7.22,5.44c0.84-0.22,1.75-0.44,2.46-0.91       c2.81-1.89,5.89-2.2,9.17-2.08c1.7,0.06,3.51-0.3,5.11-0.91c1.74-0.66,2.64-2.26,2.68-4.66c0.33,0.83,0.44,1.19,0.61,1.52       c2.31,4.36,5.24,7.96,10.73,7.88c2.18-0.03,4.43-0.23,6.5-0.85c2.72-0.82,5.29-2.13,8.02-3.27c0.15,0.3,0.37,0.74,0.59,1.18       c1.67,3.27,3.42,3.77,6.86,2.66c2.35-0.76,4.9-1.16,7.37-1.27c3.27-0.14,5.72-1.51,6.77-4.47c0.77-2.17,0.73-4.64,0.98-6.99       c0.11-1.05-0.18-2.18,0.07-3.17c1.21-4.8,2.37-9.63,3.89-14.34c1.51-4.69,3.44-9.25,5.06-13.56c1.53,1.66,3.01,3.26,4.76,5.16       c-0.46,1.33-1.03,3.25-1.76,5.1c-2.79,7.14-5.69,14.22-8.38,21.4c-0.71,1.89-1.22,4.05-1.07,6.03       c0.37,4.79,6.79,8.2,10.69,6.14c1.87-0.99,4.09-1.91,6.13-1.87c5.15,0.09,7.58-3.93,6.69-8.44c-0.14-0.71-0.17-1.54,0.06-2.21       c2.01-5.88,4.04-11.74,6.15-17.59c1.24-3.42,2.83-6.73,3.87-10.21c0.89-2.99,1.07-6.18-1.41-8.67       c-0.96-0.97-2.32-1.55-3.07-2.03C204.34,21.53,206.83,19.7,208.53,17.31z M42.73,58.15c1.95-7.49,4.47-14.71,9.37-21.08       c1.16,0.85,2.06,1.52,3.07,2.26C52.07,46.32,48.24,52.76,42.73,58.15z M71.49,63.13c-1.47-0.95-2.9-1.87-4.32-2.79l-0.66,0.27       c0.37-1.13,0.62-2.32,1.15-3.37c3.8-7.65,7.28-15.41,9.09-24.03c1.78,1.62,2.89,3.74,6.07,2.9       C76.86,44.56,73.62,53.71,71.49,63.13z M154.23,42.21c-2.78,4.62-5.85,9.06-8.81,13.57c-0.47,0.72-0.98,1.42-1.68,1.92       c0.38-5.53,5.47-16.87,9.19-21.25C156,38.85,156.19,38.96,154.23,42.21z"/>
				</g>
			</g>
			<g>
				<path class="st12" d="M365.21,25.06c-1.75,0.28-3.42,1.07-5.19,1.65c-2.31-2.66-3.64-2.81-7.58-1.92      c-3.27,0.74-6.79,1.63-9.97,1.11c-3.28-0.54-5.62-0.29-7.49,2.32c-0.66-1.24-1.11-2.59-1.97-3.59c-1.81-2.1-4.11-1.6-6.45-0.91      c-4.19,1.25-8.36,1.9-12.7,0.24c-1.52-0.58-3.49-0.36-5.18-0.07c-5.1,0.9-9.29,3.72-13.27,6.85      c-8.02,6.3-13.71,14.17-15.73,24.32c-0.53,2.67-0.45,5.47-0.63,7.86c-0.98-0.6-2.17-1.33-3.51-2.14c0.22-0.6,0.45-1.3,0.72-1.99      c2.9-7.5,5.97-14.94,7.28-22.94c0.37-2.28,0.34-4.46-0.98-6.54c-3.67-5.78-10.37-8.1-16.77-5.42c-2.92,1.22-5.63,2.96-8.58,4.53      c-7.08-7.82-14.91-6.46-22.99-1.45c-2.62-3.44-3.71-3.94-7.85-2.71c-3.72,1.11-7.41,1.77-11.32,1.45      c-1.34-0.11-2.88,0.37-4.11,1c-1.79,0.92-2.33,2.68-2.09,4.67c0.21,1.8,1.2,2.81,2.93,3.23c0.59,0.14,1.13,0.48,1.69,0.74      c-0.08,0.39-0.09,0.65-0.19,0.87c-2.49,6.17-5.25,12.25-7.39,18.54c-1.48,4.36-2.52,8.97-2.99,13.54      c-0.47,4.63,3.33,7.22,7.87,6.08c2.86-0.71,5.74-1.7,8.64-1.81c3.78-0.14,5.99-3.03,5.84-6.86      c-0.38-9.86,5.11-17.23,10.33-24.97c-2.32,5.88-4.54,11.53-6.77,17.18c-1.63,4.15-2.32,8.38-0.79,12.69      c1.31,3.73,3.9,4.67,7.58,3.26c2.32-0.89,4.78-1.54,7.23-1.95c3.4-0.58,6.86-0.85,10.53-1.28c2.65,4.17,5.33,5.28,9.52,2.91      c3.08-1.74,6.23-2.22,9.6-2.07c3.57,0.16,6.15-1.28,7.77-4.69c2.05,4.5,5.37,7,10.28,7.5c4.68,0.48,8.75-1.01,12.63-3.49      c0.31,0.52,0.51,0.83,0.7,1.14c1.82,2.96,3.38,3.44,6.55,2.02c3.26-1.46,6.68-2.34,10.25-2.1c3.68,0.24,6.75-0.7,8.98-4.07      c0,0.46,0,0.65,0,0.83c-0.13,5.84,2.65,7.64,8.12,5.57c2.72-1.03,5.62-1.84,8.5-2.18c3.37-0.39,5.39-2.27,5.39-5.71      c0-2.05,0.04-4.14,0.42-6.15c1.12-5.88,3.85-10.96,7.53-14.94c2.34,0.6,4.32,1.61,6.23,1.49c5.02-0.31,9.5-4.64,10.21-9.65      C377.04,29.94,372.92,23.83,365.21,25.06z M253.25,62.66c-0.42-0.26-0.58-0.35-0.73-0.46c-2.83-2.18-2.92-2.21-1.62-5.71      c2.43-6.58,6.58-12.06,11.21-17.23c0.15-0.17,0.4-0.25,0.84-0.52C259.72,46.85,254.94,54.04,253.25,62.66z M300.54,57.78      c1.94-7.46,4.43-14.65,9.29-20.93c1.02,0.75,1.96,1.43,3.06,2.23C309.87,46.02,306.04,52.42,300.54,57.78z M339.66,38.47      c-2.91,7-5.75,14.02-8.5,21.08c-0.65,1.66-0.83,3.49-1.31,5.56c-1.95-3.81-2.58-4.35-5.67-4.73c0.6-1.57,1.04-3.1,1.74-4.51      c3.23-6.53,6.22-13.15,7.93-20.27c0.23-0.96,0.42-1.93,0.6-2.75c1.54,0.98,2.99,2,4.53,2.86      C340.27,36.44,340.18,37.21,339.66,38.47z"/>
			</g>
		</g>
		<g>
			<path class="st0" d="M152.79,69.03c-0.32-1.16-0.55-2.46-1.06-3.64c-0.41-0.96-1-2.2-1.82-2.53c-0.68-0.27-2.04,0.37-2.73,1.01     c-3.92,3.68-8.44,5.47-13.86,5.24c-1.97-0.08-3.31-0.83-4.47-2.28c-3.01-3.73-3.71-7.95-2.37-12.43     c3.97-13.23,12.77-21.91,25.63-26.57c2.51-0.91,5.06-0.56,7.38,1c1.5,1.02,2.82,0.72,3.53-0.96c1.26-3,2.43-6.06,3.41-9.17     c0.62-1.99-0.59-4.04-2.71-5.32c-0.48-0.29-1-0.5-2.04-1.02c1.12-0.15,1.74-0.37,2.33-0.29c4.17,0.56,8.27,0.27,12.3-0.93     c2.27-0.68,2.95-0.15,3.02,2.3c0.1,3.84-0.95,7.4-2.31,10.96c-3.32,8.74-6.55,17.51-9.62,26.34c-1.26,3.62-1.96,7.4-1.47,11.31     c0.12,0.92,0.05,1.89-0.1,2.82c-0.3,1.9-1.29,2.48-3.21,2.69C159.45,67.91,156.31,68.49,152.79,69.03 M160.9,36.93     c0.03-2.56-1.13-4.08-3.06-4.36c-1.01-0.14-1.51-0.44-1.83-1.47c-0.64-2.03-2.46-2.53-4.16-1.25c-0.64,0.49-1.2,1.11-1.73,1.73     c-5.68,6.58-8.69,14.49-11.01,22.68c-0.6,2.1-0.72,4.48-0.44,6.66c0.31,2.39,2.09,3.04,4.21,1.88c1.15-0.63,2.27-1.37,3.24-2.25     c5.92-5.38,9.86-12.16,13.28-19.27C160.16,39.74,160.54,38,160.9,36.93"/>
			<path class="st0" d="M116.76,65.47c-1.16,0-1.95,0.06-2.73-0.01c-3.92-0.33-7.6,0.23-10.97,2.45c-0.65,0.43-1.62,0.36-2.45,0.52     c-0.13-0.77-0.45-1.57-0.35-2.32c1.29-9.6,4.04-18.76,8.26-27.49c0.34-0.71,0.78-1.64,0.59-2.29c-0.33-1.12-0.89-2.5-1.79-3.02     c-0.8-0.47-2.49-0.33-3.25,0.25c-1.67,1.27-3.2,2.85-4.43,4.56c-3.54,4.95-7.3,9.78-9.53,15.54c-1.47,3.79-2.59,7.63-2.36,11.72     c0.08,1.44-0.59,1.91-1.8,2.06c-0.5,0.06-1,0.09-1.5,0.1c-2.48,0.05-5.04-0.38-7.19,1.44c-0.33,0.28-0.93,0.23-1.74,0.4     c0-1.47-0.25-2.82,0.04-4.03c1.72-7.28,3.53-14.54,7.16-21.17c1.26-2.31,2.72-4.52,4.05-6.8c1.07-1.83,1.19-3.73-0.04-5.51     c-1.08-1.56-2.67-1.98-4.5-1.48c-0.23,0.06-0.49,0.04-0.74,0.01c-0.1-0.01-0.2-0.14-0.26-0.24c-0.06-0.1-0.05-0.24-0.14-0.66     c0.65-0.07,1.28-0.11,1.91-0.2c3.22-0.44,6.42-0.97,9.65-1.32c1.61-0.17,3.25-0.03,4.73-0.03c0.21,0.43,0.3,0.54,0.31,0.66     c0.42,4.79,3.22,5.37,6.76,2.55c2.06-1.64,4.52-3.09,7.03-3.79c6.61-1.83,10.57,2.12,9.38,8.83c-0.91,5.14-2.97,9.83-5.28,14.45     c-0.75,1.51-1.5,3.05-2.02,4.66C112.03,60.13,112.61,62.01,116.76,65.47"/>
			<path class="st0" d="M72.39,27.16c-0.3,2.4-0.21,4.79-0.95,6.88c-2.19,6.2-4.71,12.28-7.11,18.41c-0.64,1.63-1.41,3.22-2,4.86     c-1.45,4.04,0.42,7.42,4.36,7.5c0.17,0,0.33,0.15,0.96,0.47c-0.92,0.47-1.57,1.11-2.2,1.09c-5.21-0.15-10.25,0.53-15.43,3.09     c-0.09-1.5-0.31-2.58-0.19-3.63c0.18-1.49-0.09-2.7-1.6-3.2c-1.36-0.45-2.05,0.49-2.9,1.46c-2.34,2.66-5.41,4.26-8.88,4.84     c-1.51,0.25-3.17,0.16-4.67-0.19c-3.56-0.85-5.53-3.87-5.65-8.36c-0.17-6.26,1.91-11.87,5.3-17c4.21-6.38,9.81-11.25,16.76-14.47     c3.18-1.47,6.49-2.67,9.62,0.33c0.33,0.32,1.09,0.4,1.59,0.31C63.5,28.84,67.6,28.05,72.39,27.16 M37.23,59.44     c0.08,0.03,0.17,0.05,0.25,0.08c0.05,0.44,0.07,0.88,0.15,1.3c0.64,3.22,2.27,3.97,5.12,2.33c0.81-0.47,1.58-1.03,2.29-1.64     c3.99-3.37,7.03-7.55,9.53-12.06c2.03-3.65,3.82-7.47,5.28-11.38c0.98-2.61-0.4-4.28-3.11-4.89c-0.49-0.11-1.09-0.58-1.29-1.04     c-1.17-2.62-3-3.04-5.09-1.04c-0.59,0.56-1.09,1.21-1.62,1.84c-4.55,5.38-7.09,11.81-9.35,18.35     C38.5,53.95,37.95,56.72,37.23,59.44"/>
			<path class="st0" d="M185.55,29.29c5.15-0.02,9.89-0.27,14.49-1.8c1.79-0.6,3.03,0.71,2.61,2.84c-0.37,1.9-0.92,3.79-1.6,5.59     c-2.59,6.8-5.45,13.51-7.84,20.38c-0.9,2.59-0.96,5.51-1.1,8.3c-0.08,1.64-0.38,2.17-2.19,2.33c-2.52,0.22-5.04,0.96-7.45,1.79     c-1.36,0.46-2.57,0.78-3.71-0.11c-1.29-1.01-1.16-2.47-0.66-3.81c2.77-7.34,5.61-14.65,8.4-21.98c0.92-2.4,1.88-4.79,2.64-7.23     C189.96,32.97,189.04,31.4,185.55,29.29"/>
			<path class="st0" d="M200.96,9.5c0.5,0.05,1,0.06,1.5,0.14c2.11,0.36,2.78,1.63,1.74,3.52c-1.59,2.88-4.23,4.42-7.31,5.16     c-1.36,0.33-2.88,0.46-4.24,0.22c-2.23-0.4-2.74-1.79-1.55-3.71c2.04-3.29,5.21-4.75,8.91-5.26c0.31-0.04,0.63-0.01,0.94-0.01     C200.96,9.54,200.96,9.52,200.96,9.5"/>
			<path class="st0" d="M214.14,29.53c0.75-0.11,0.99-0.21,1.21-0.17c4.17,0.72,8.11-0.25,12.02-1.57c2.14-0.72,2.43-0.51,2.84,1.74     c0.62,3.42,1.98,3.91,4.93,1.95c2.27-1.51,4.52-3.29,7.05-4.11c2.15-0.7,4.75-0.52,7.04-0.12c2.48,0.44,3.97,2.48,5.05,4.72     c1.23,2.56,2.52,2.78,4.63,0.83c3.08-2.85,6.35-5.29,10.62-6.12c3.59-0.7,7.81,1.06,9.12,4.42c0.5,1.28,0.4,3.04-0.01,4.4     c-2,6.6-4.2,13.14-6.35,19.7c-0.21,0.66-0.5,1.29-0.74,1.94c-1.51,4.19-0.57,6.35,3.54,8.34c-0.73,0.13-1.47,0.38-2.2,0.36     c-4.2-0.12-8.24,0.25-11.94,2.63c-2.1,1.35-3.45,0.24-3.36-2.48c0.17-5.28,2.08-10.04,4.32-14.71c1.95-4.08,3.89-8.17,5.72-12.31     c0.88-2.01,1.86-4.25-0.21-6.1c-2.08-1.86-4.18-0.63-6.05,0.53c-1.36,0.85-2.69,1.88-3.75,3.09     c-4.47,5.07-8.36,10.55-10.88,16.87c-0.58,1.45-1,2.99-1.32,4.52c-0.66,3.19,0.95,6.17,3.63,6.77c0.27,0.06,0.5,0.31,1.17,0.74     c-0.98,0.26-1.58,0.56-2.19,0.56c-5.21-0.05-10.26,0.71-15.17,3.18c-1.14-2.78-1.35-5.5-0.36-8.14c2.3-6.1,4.77-12.14,7.18-18.21     c0.63-1.57,1.4-3.1,1.87-4.72c0.41-1.42,0.35-2.9-0.98-3.97c-1.3-1.05-2.79-0.99-4.06-0.16c-1.81,1.19-3.8,2.37-5.09,4.04     c-4.69,6.04-8.65,12.54-10.3,20.13c-0.45,2.06-0.42,4.23-0.49,6.36c-0.05,1.5-0.36,2.32-2.16,2.56     c-2.72,0.36-5.39,1.14-8.06,1.83c-2.4,0.62-3.35,0.13-2.82-2.23c1.17-5.25,2.47-10.51,4.24-15.58c1.78-5.08,4.18-9.95,6.35-14.89     c0.88-2,0.28-3.96-1.78-5.36C215.83,30.4,215.2,30.12,214.14,29.53"/>
			<path class="st0" d="M330.15,26.97c-0.37,2.6-0.5,5.09-1.09,7.46c-1.74,6.92-4.76,13.36-7.89,19.74     c-0.76,1.55-1.33,3.3-1.53,5.01c-0.36,3.13,1.35,4.96,4.48,5.27c0.23,0.02,0.46,0.11,0.69,0.16c0.08,0.19,0.15,0.37,0.23,0.56     c-0.77,0.36-1.56,1.09-2.3,1.03c-5.14-0.38-9.98,0.74-15.14,3c0-1.52-0.11-2.73,0.03-3.92c0.17-1.42-0.4-2.56-1.62-2.81     c-0.8-0.17-2.13,0.38-2.66,1.05c-2.13,2.72-5.09,3.98-8.18,4.97c-1.22,0.39-2.61,0.42-3.91,0.32c-6.16-0.48-8.16-5.38-7.4-11     c1.98-14.67,10.76-24.23,24.07-29.9c2.46-1.05,5.12-1.17,7.43,0.91c0.47,0.42,1.52,0.41,2.26,0.3     C321.61,28.51,325.58,27.78,330.15,26.97 M295.21,59.16c0.1,0.62,0.17,1.24,0.32,1.85c0.69,2.79,2.22,3.49,4.7,2.1     c0.92-0.52,1.81-1.15,2.61-1.84c4.65-4,7.97-9.04,10.87-14.35c1.58-2.9,2.94-5.98,3.99-9.11c0.87-2.58-0.55-4.3-3.23-4.87     c-0.49-0.1-1.07-0.59-1.28-1.05c-1.17-2.58-2.86-3.01-4.95-1.12c-0.56,0.5-1.02,1.11-1.51,1.68c-3.89,4.49-6.36,9.78-8.34,15.3     C297.05,51.45,295.08,59.11,295.21,59.16"/>
			<path class="st0" d="M333.93,69.65c0.54-3.27,0.8-6.13,1.5-8.88c1.92-7.58,5.16-14.67,8.59-21.66c1.81-3.69,0.98-6.29-2.69-8.25     c-0.69-0.37-1.4-0.72-2.07-1.06c2.75,0,5.45,0.22,8.1-0.06c2.72-0.29,5.38-1.09,8.45-1.74c-0.08,1.14-0.11,2.21-0.25,3.26     c-0.08,0.61-0.4,1.2-0.51,1.81c-0.24,1.27,0.21,2.25,1.44,2.73c1.26,0.49,2.07-0.13,2.86-1.13c1.47-1.84,2.93-3.73,4.68-5.28     c2.21-1.96,5.98-0.74,6.97,2.03c1.43,4.03-0.33,8.05-4.14,9.45c-1.98,0.73-3.03,0.39-4.19-1.32c-1.46-2.16-2.48-2.33-4.34-0.53     c-6.77,6.53-10.77,14.43-11.59,23.86c-0.09,1.09,0.4,2.61-0.15,3.19c-0.58,0.62-2.14,0.22-3.2,0.52     c-2.35,0.66-4.66,1.47-6.98,2.22C335.76,69.01,335.13,69.24,333.93,69.65"/>
		</g>
		<path class="st13" d="M393.33,57.47c-0.14-0.41-0.31-0.79-0.45-1.13L392.73,56c-0.31-0.74-0.96-1.3-1.74-1.49    c-0.78-0.19-1.61,0-2.24,0.51c-0.06,0.05-0.13,0.09-0.2,0.14c-0.17,0.12-0.37,0.26-0.58,0.44c-0.58-0.44-1.25-0.78-2.06-0.9    c-1.31-0.18-3.66,0.06-5.3,3.41l-0.02-0.01c-0.6-0.34-1.31-0.42-1.98-0.22c-0.66,0.2-1.22,0.65-1.54,1.26    c-0.13,0.24-0.26,0.48-0.39,0.73c-0.32,0.58-0.65,1.18-0.94,1.85c-0.35,0.78-0.7,1.57-1.04,2.35c-0.3-0.26-0.62-0.49-0.97-0.66    c0.03-0.04,0.06-0.07,0.08-0.11c0.53-0.68,1.51-1.94,0.82-3.5c-0.39-0.89-0.99-1.52-1.47-2.02c-0.12-0.13-0.25-0.25-0.36-0.39    c-0.17-0.19-0.36-0.36-0.57-0.49c-0.07-1.24-0.7-2.44-1.82-3.36c-0.95-0.77-2.09-1.11-3.21-0.95c-1.18,0.17-2.25,0.86-3.02,1.95    c-0.71,1.01-1.68,2.56-1.94,4.31c-0.13,0.89-0.26,1.77-0.37,2.65c-0.38-0.36-0.78-0.64-1.17-0.84c-1.84-0.95-4.17,0.48-4.97,1.87    c-1.46,2.55-2.7,4.94-3.79,7.29c-0.72,1.55-0.08,3.21,0.23,4.01c0.29,0.73,0.99,1.64,2.74,1.83c0.62,0.07,1.12,0,1.53-0.13    c0.4,2.1,1.13,4.35,3,6.16c1.11,1.08,2.81,1.51,4.26,1.51c0.33,0,0.65-0.02,0.94-0.06c2.81-0.4,3.32-4.4,3.33-4.45    c0.15-1.3,0.26-2.59,0.37-3.87c0.09,0.03,0.18,0.06,0.28,0.08c0.73,0.17,1.5,0.01,2.1-0.43c0.02-0.01,0.04-0.03,0.06-0.04    c0.64,0.78,1.52,1.63,2.66,2.02c1.58,0.54,2.88-0.37,3.89-1.39c-0.01,0.55-0.01,1.12,0.03,1.69c0.13,2.06,1.34,3.94,2.42,5.01    c0.88,0.87,1.95,1.33,3.03,1.33c0.41,0,0.81-0.07,1.21-0.2c1.5-0.51,2.53-1.89,2.77-3.69c0.19-1.41,0.04-2.79-0.12-4.07    c-0.19-1.48-0.42-2.95-0.65-4.37c0.18-0.1,0.36-0.22,0.54-0.37c3.19-2.62,5.41-6.17,6.79-10.85    C393.49,59.04,393.61,58.27,393.33,57.47z"/>
		<g>
			<path class="st12" d="M362.92,78.04c0.11-2.09,0.14-4.19,0.35-6.28c0.43-4.19,0.88-8.38,1.5-12.54c0.17-1.13,0.83-2.26,1.51-3.22     c0.57-0.81,1.52-1.29,2.53-0.48c0.94,0.76,1.17,1.81,0.5,2.75c-1.98,2.78-2.32,6.05-2.79,9.23c-0.53,3.61-0.64,7.28-1.07,10.9     c-0.1,0.81-0.66,2.15-1.15,2.22c-0.99,0.14-2.4-0.1-3.08-0.76c-2.09-2.02-2.28-4.88-2.7-7.58c-0.24-1.56-0.34-3.14-0.51-4.71     c-0.2-0.03-0.4-0.07-0.59-0.1c-0.31,1.24-0.59,2.49-0.93,3.72c-0.18,0.65-0.4,1.33-0.76,1.88c-0.1,0.16-1.1,0.03-1.17-0.17     c-0.24-0.63-0.54-1.48-0.3-2.01c1.12-2.42,2.37-4.78,3.69-7.09c0.27-0.47,1.27-1.03,1.59-0.87c0.6,0.31,1.26,1.06,1.36,1.71     c0.27,1.86,0.19,3.77,0.39,5.64c0.28,2.59,0.69,5.18,1.05,7.76C362.54,78.04,362.73,78.04,362.92,78.04"/>
			<path class="st12" d="M371.2,62.55c-0.68-0.99-1.3-1.54-1.4-2.17c-0.06-0.38,0.69-0.89,1.08-1.33c0.5,0.58,1.13,1.09,1.42,1.76     C372.42,61.08,371.78,61.68,371.2,62.55"/>
			<path class="st12" d="M381.76,61.69c0.23-0.47,0.59-1.11,0.85-1.79c0.56-1.41,1.45-2.88,2.95-2.67c1.04,0.14,1.9,1.54,2.95,2.47     c0.15-0.34,0.4-1.12,0.81-1.81c0.22-0.38,0.7-0.61,1.06-0.91c0.18,0.44,0.38,0.87,0.54,1.32c0.05,0.15,0.03,0.35-0.02,0.51     c-1.1,3.75-2.89,7.08-5.95,9.59c-0.39,0.32-1.04,0.33-1.78,0.55c0.33,2.13,0.71,4.3,0.98,6.49c0.14,1.13,0.27,2.3,0.12,3.41     c-0.22,1.64-1.53,2.22-2.68,1.09c-0.85-0.85-1.6-2.19-1.67-3.36c-0.15-2.31,0.32-4.66,0.31-6.99c-0.01-1.39-0.43-2.77-1.07-4.2     c-0.66,1.7-1.31,3.4-1.97,5.1c-0.25,0.64-0.42,1.36-0.84,1.86c-0.59,0.7-1.6,1.83-2.06,1.68c-0.88-0.3-1.61-1.3-2.19-2.15     c-0.39-0.57-0.42-1.39-0.74-2.58c-0.47,1.03-0.7,1.72-1.08,2.3c-0.23,0.35-0.7,0.55-1.06,0.82c-0.24-0.47-0.8-1.07-0.68-1.4     c0.62-1.65,1.29-3.31,2.19-4.82c0.69-1.16,2.21-0.82,2.86,0.54c0.24,0.51,0.39,1.07,0.52,1.63c0.13,0.55,0.19,1.11,0.29,1.74     c0.25-0.07,0.48-0.07,0.52-0.15c1.06-2.4,2.09-4.81,3.16-7.2c0.37-0.83,0.84-1.62,1.27-2.43     C380.12,60.77,380.91,61.21,381.76,61.69 M382.41,65.4c2.61-0.97,3.4-2.9,2.3-5.49C383.92,61.82,383.26,63.39,382.41,65.4"/>
		</g>
		<g>
			<path class="st12" d="M2.73,28.93l-0.5,0.09c-0.26,0.06-0.49-0.14-0.68-0.61c-0.15-0.36,0.01-0.79,0.48-1.28     c0.47-0.49,0.75-0.8,0.84-0.93c0.09-0.13,0.23-0.23,0.41-0.3c0.09-0.18,0.26-0.4,0.49-0.64c0.24-0.25,0.4-0.44,0.5-0.58     c0.09-0.14,0.19-0.25,0.29-0.33c0.1-0.08,0.17-0.19,0.21-0.32c0.1-0.08,0.17-0.15,0.23-0.22c0.06-0.07,0.2-0.19,0.41-0.37     c0.22-0.18,0.34-0.3,0.37-0.37l0.21-0.31c0.24-0.11,0.37-0.21,0.4-0.3c0.03-0.09,0.16-0.23,0.4-0.41l0.34-0.26     c0.05-0.02,0.13,0,0.24,0.05c-0.05-0.21-0.01-0.34,0.11-0.38l0.4-0.14c0.11-0.16,0.18-0.25,0.22-0.26l0.05-0.08     c0.17-0.05,0.29-0.08,0.37-0.09c0.08-0.01,0.18,0.02,0.29,0.09c0.03-0.15,0.07-0.24,0.14-0.26c0.13-0.06,0.31-0.06,0.54-0.02     l0.19-0.11c0.21-0.09,0.35-0.07,0.42,0.06c0.07,0.12,0.15,0.21,0.24,0.26c0.09,0.05,0.19,0.14,0.3,0.26l0.16,0.11     c0.1,0.02,0.16,0.06,0.19,0.13c0.07,0.18,0.07,0.47,0,0.89l-0.07,0.81c-0.03,0.2-0.09,0.39-0.16,0.55l-0.02,0.24     c-0.07,0.19-0.13,0.34-0.18,0.43c-0.05,0.09-0.02,0.29,0.08,0.59c0.01,0.11-0.01,0.21-0.05,0.28c-0.04,0.07-0.07,0.15-0.07,0.23     c-0.15,0.11-0.23,0.25-0.24,0.42l-0.17,1.37c0,0.07-0.06,0.17-0.19,0.31c-0.13,0.14-0.17,0.48-0.13,1.03     c0.05-0.13,0.12-0.25,0.19-0.37l0.1-0.41l0.68-1.52c0.13-0.3,0.22-0.5,0.26-0.59c0.04-0.09,0.09-0.15,0.15-0.19     c0-0.08,0.05-0.19,0.14-0.34c0.1-0.15,0.18-0.32,0.23-0.51l0.1-0.22l0.02-0.17c0.01-0.18,0.07-0.29,0.19-0.34l0.06-0.14     c-0.02-0.18,0.05-0.3,0.22-0.37c0.02-0.05,0.01-0.13-0.02-0.24c-0.04-0.11,0.02-0.2,0.16-0.26l0.1-0.04l0.01-0.04     c-0.01-0.08-0.01-0.15,0.03-0.19c0.03-0.04,0.05-0.11,0.05-0.21c0.02,0.04,0.03,0.04,0.05-0.01c0.02-0.05,0.03-0.15,0.05-0.32     c0.02-0.17,0.07-0.28,0.15-0.36c0.08-0.07,0.11-0.15,0.1-0.25c-0.01-0.09,0.03-0.19,0.11-0.29c0.08-0.1,0.15-0.19,0.2-0.28     c0.05-0.09,0.11-0.15,0.17-0.17c0.03-0.01,0.1,0,0.19,0.04c-0.09-0.27,0.1-0.65,0.57-1.13l0.47-0.77     c0.14-0.19,0.25-0.33,0.34-0.4c0.09-0.07,0.21-0.22,0.38-0.45c0.16-0.23,0.3-0.38,0.43-0.46c0.12-0.08,0.34-0.18,0.64-0.31     l0.27-0.05c0.05-0.06,0.13-0.11,0.24-0.16c0.21-0.09,0.54-0.08,0.98,0.01c0.45,0.09,0.76,0.36,0.94,0.81     c0.13,0.33,0.15,0.73,0.03,1.2c-0.03,0.07-0.05,0.22-0.05,0.46c0,0.23-0.01,0.42-0.04,0.58c-0.02,0.15-0.02,0.31,0,0.47     c0.02,0.16-0.03,0.39-0.15,0.67c-0.12,0.28-0.14,0.58-0.08,0.91c0.01,0.05,0,0.12-0.03,0.22c-0.03,0.1-0.04,0.22-0.02,0.36     c0.01,0.14-0.01,0.31-0.06,0.51c-0.05,0.2-0.07,0.39-0.04,0.55c0.02,0.05-0.04,0.28-0.18,0.68l0.02,1.23     c-0.06,0.11-0.1,0.36-0.09,0.78l-0.03,1.18c-0.04,0.26-0.07,0.43-0.1,0.5l0.12,0.3c-0.04,0.18-0.03,0.41,0.05,0.66     c0.08,0.26,0.13,0.44,0.14,0.53c0.02,0.1,0.04,0.16,0.05,0.19c0.07,0.17,0.19,0.22,0.36,0.15c0.24-0.1,0.4-0.24,0.47-0.41     c0.07-0.17,0.13-0.29,0.18-0.36c0.05-0.07,0.14-0.24,0.25-0.5l0.55-1.02c0.15-0.26,0.25-0.43,0.3-0.53     c0.05-0.09,0.15-0.18,0.31-0.25c0.06-0.81,0.23-1.28,0.52-1.39c0.28-0.11,0.45-0.1,0.51,0.06l-0.03,0.22l0.17,0.21l0.02,0.05     l0.1,0.45c0,0.06-0.06,0.18-0.19,0.37c0.03,0.13,0,0.25-0.1,0.39c-0.1,0.13-0.18,0.27-0.24,0.41l-0.24,0.07     c0.01,0.18-0.03,0.34-0.1,0.48l-0.25,0.43c-0.09,0.14-0.2,0.32-0.33,0.52c-0.13,0.2-0.29,0.38-0.48,0.55     c-0.19,0.17-0.3,0.3-0.34,0.41c-0.04,0.11-0.1,0.19-0.19,0.24l-0.2,0.08l-0.26,0.19L18.43,31c-0.08,0.03-0.46-0.01-1.15-0.12     c-0.69-0.11-1.21-0.57-1.54-1.39c-0.11-0.27-0.15-0.5-0.11-0.71l0.01-0.18c0-0.06,0.01-0.16,0.03-0.32     c0.02-0.16,0.03-0.33,0.03-0.51c0.12-0.14,0.17-0.23,0.15-0.28c-0.01-0.02-0.02-0.03-0.05-0.05c-0.03-0.02-0.05-0.04-0.06-0.08     c-0.03-0.07-0.03-0.17,0-0.29l-0.1-0.24l0.27-1.44c0-0.01,0.01-0.26,0.03-0.76c0.03-0.5,0.05-0.77,0.08-0.82     c0.03-0.05,0.04-0.1,0.03-0.14c-0.01-0.04-0.01-0.1-0.01-0.17c0-0.07-0.01-0.14-0.03-0.22c-0.02-0.08,0-0.21,0.06-0.4     c0.06-0.19,0.11-0.39,0.14-0.61l0.05-0.23c0.04-0.16,0.06-0.31,0.06-0.47c-0.01-0.16,0-0.28,0.03-0.36     c0.22-0.68,0.27-1.24,0.15-1.68c0.02-0.13,0.04-0.24,0.08-0.35c0.03-0.11,0.03-0.21-0.01-0.31l-0.15-0.15     c-0.18,0.15-0.35,0.34-0.51,0.57c-0.16,0.23-0.34,0.43-0.54,0.61c-0.21,0.18-0.34,0.33-0.4,0.45c-0.06,0.12-0.24,0.37-0.53,0.74     l-0.09,0.29c0.01,0.02,0,0.04-0.03,0.07l-0.25,0.07c-0.03,0.03-0.04,0.1-0.03,0.2c0.01,0.1-0.06,0.2-0.2,0.31     c-0.02,0.02-0.04,0.14-0.04,0.36c-0.05,0.08-0.2,0.21-0.45,0.39c-0.07,0.13-0.11,0.28-0.13,0.47c-0.02,0.19-0.11,0.36-0.28,0.5     c-0.17,0.14-0.26,0.24-0.28,0.28c0.09,0.41,0.03,0.71-0.2,0.89c-0.22,0.18-0.32,0.39-0.3,0.64c0.02,0.25-0.05,0.44-0.22,0.55     c-0.05,0.08-0.11,0.24-0.17,0.49c-0.07,0.25-0.18,0.49-0.33,0.73c-0.15,0.24-0.26,0.5-0.33,0.78c-0.07,0.28-0.15,0.49-0.24,0.62     c-0.09,0.13-0.25,0.5-0.47,1.1c-0.22,0.6-0.33,0.95-0.35,1.06c-0.02,0.11-0.12,0.39-0.3,0.85c-0.03,0.01-0.11,0.06-0.22,0.15     c-0.01,0.08-0.02,0.15-0.05,0.21L9.2,32.91c-0.11,0.32-0.23,0.74-0.35,1.27c-0.07,0.08-0.13,0.14-0.18,0.18     c-0.02,0.05-0.02,0.13,0.01,0.23l-0.01,0.18l-0.2,0.3c-0.02,0.61-0.23,0.99-0.64,1.16c-0.23,0.09-0.51,0-0.84-0.27     c-0.33-0.27-0.5-0.41-0.5-0.42c-0.2-0.48-0.29-0.81-0.28-0.98c0.01-0.17,0.05-0.35,0.12-0.52c0.02-0.01,0.02-0.1,0.02-0.28     c-0.01-0.18,0.01-0.34,0.06-0.48c0.05-0.14,0.08-0.34,0.1-0.6c0.02-0.26,0.08-0.41,0.17-0.45c0.02-0.01,0.05-0.01,0.11-0.02     l0.03-0.07l-0.17-0.27c0-0.1,0.01-0.18,0.04-0.25c0.03-0.07,0.04-0.19,0.03-0.35c-0.01-0.16,0.06-0.31,0.19-0.44     c-0.03-0.07,0-0.24,0.08-0.52c0-0.19,0.02-0.41,0.05-0.68c0.03-0.26,0.11-0.45,0.23-0.56l-0.04-0.1c-0.04-0.1,0-0.31,0.13-0.63     c0.09-0.07,0.12-0.19,0.11-0.34c-0.02-0.15,0.02-0.29,0.1-0.41c0.06-0.22,0.12-0.47,0.18-0.75l0.23-0.83     c0.06-0.15,0.1-0.25,0.14-0.31c-0.1-0.25-0.08-0.41,0.08-0.48c0.02-0.01,0.05-0.01,0.11-0.02c-0.04-0.19-0.04-0.34,0-0.44     c0.04-0.1,0.04-0.21,0.01-0.32c-0.03-0.11,0.08-0.27,0.32-0.47l-0.12-0.16c0.01-0.35,0.08-0.6,0.21-0.75     c0.01-0.04,0.02-0.25,0-0.64c-0.02-0.05-0.13-0.07-0.32-0.06c-0.03,0.08-0.06,0.13-0.09,0.14l-0.43,0.13l-0.33,0.3     c-0.13,0.06-0.21,0.09-0.22,0.12L7.2,23.2c-0.14,0.12-0.21,0.23-0.23,0.3l-0.05,0.02l-0.21,0.03l-0.05,0.02l-0.42,0.6l-0.05,0.02     l-0.44,0.12c-0.03,0.17-0.22,0.37-0.57,0.59l-0.04,0.27l-0.3,0.09c-0.06,0.09-0.12,0.19-0.16,0.3c-0.04,0.12-0.1,0.2-0.19,0.26     c-0.52,0.54-0.84,0.98-0.96,1.32c-0.04,0.1-0.08,0.19-0.12,0.27c-0.04,0.08-0.07,0.19-0.09,0.35l-0.06,0.29     c0.01,0.16-0.03,0.26-0.11,0.31c-0.08,0.05-0.16,0.15-0.22,0.3C2.87,28.81,2.8,28.9,2.73,28.93"/>
			<path class="st12" d="M21.84,24.59l0.21,0c-0.04-0.15-0.01-0.3,0.09-0.46l0.1-0.04c0.08-0.03,0.15-0.19,0.19-0.48l0.16-0.21     c0.04,0,0.09-0.01,0.16-0.04c0.05-0.02,0.09-0.07,0.1-0.16c0.02-0.09,0.08-0.26,0.19-0.54l0.05-0.02     c0.05-0.02,0.1-0.08,0.14-0.19c0.04-0.11,0.12-0.18,0.24-0.23l0.38-0.29c0.12-0.09,0.19-0.14,0.21-0.14     c0.07-0.06,0.31,0.02,0.74,0.23c0.43,0.21,0.71,0.47,0.84,0.78c0.07,0.18,0.02,0.32-0.15,0.43l-0.04,0.08l0.1,0.25l-0.02,0.56     c-0.01,0.15-0.05,0.26-0.12,0.33c-0.02,0.17-0.04,0.28-0.05,0.34l-0.17,0.1l-0.04,0.11l0.13,0.32c-0.03,0.13-0.05,0.4-0.06,0.8     c0,0.4,0.01,0.65,0.05,0.74c0.07,0.16,0.13,0.23,0.2,0.2c0.05-0.02,0.09-0.06,0.13-0.13c0.03-0.06,0.08-0.14,0.15-0.23     c0.07-0.09,0.11-0.17,0.13-0.25c0.02-0.08,0.08-0.16,0.2-0.27c0.12-0.1,0.21-0.24,0.27-0.41c0.07-0.17,0.12-0.29,0.15-0.36     c0.03-0.06,0.06-0.14,0.09-0.24c0.03-0.1,0.05-0.15,0.07-0.15c0.05-0.02,0.12-0.07,0.22-0.15c-0.02-0.1-0.03-0.17-0.03-0.22     l0.24-0.28l0.46-0.96l0.05-0.17c0.12-0.09,0.19-0.15,0.22-0.18c-0.03-0.25,0.02-0.47,0.14-0.63c-0.01-0.03,0.02-0.08,0.1-0.13     c0.01-0.16,0.05-0.3,0.13-0.43c0.07-0.12,0.12-0.26,0.14-0.4l0.19-0.36c0.07-0.07,0.11-0.14,0.11-0.22c0.28-0.57,0.46-0.9,0.54-1     c0.08-0.1,0.24-0.2,0.48-0.29c0.24-0.1,0.46-0.08,0.69,0.04c0.22,0.12,0.44,0.19,0.65,0.21s0.37,0.16,0.48,0.42     c0.1,0.24,0.1,0.79,0.01,1.63c0.05,0.82,0.11,1.32,0.17,1.49c0.06,0.17,0.06,0.28,0,0.33c-0.06,0.05-0.08,0.1-0.06,0.13     l0.02,0.05c0.08,0.2,0.16,0.29,0.23,0.26c0.05-0.02,0.1-0.09,0.16-0.21c0.05-0.12,0.19-0.29,0.42-0.5l0.12-0.02     c0.09-0.47,0.17-0.74,0.24-0.8c0.07-0.06,0.12-0.17,0.16-0.33c0.03-0.16,0.11-0.26,0.23-0.32c0.12-0.06,0.19-0.11,0.21-0.16     c-0.07-0.21,0-0.5,0.22-0.89c0.22-0.38,0.35-0.59,0.4-0.61c0.08-0.03,0.18,0,0.28,0.11c0.1,0.11,0.19,0.17,0.26,0.19     c0.07,0.02,0.12,0.05,0.13,0.09l0.09,0.23c0.04,0.11,0.02,0.2-0.08,0.28c-0.01,0.22-0.04,0.36-0.09,0.42l-0.24,0.07     c-0.02,0.07-0.04,0.13-0.05,0.18c-0.01,0.05-0.02,0.08-0.04,0.07c-0.06,0.04-0.13,0.21-0.22,0.48c-0.09,0.28-0.17,0.51-0.25,0.7     l-0.02,0.1c-0.05,0.08-0.1,0.14-0.15,0.18l-0.15,0.28c-0.1-0.02-0.17-0.02-0.18-0.01c-0.02,0.01-0.04,0.06-0.07,0.15     c-0.03,0.09-0.1,0.22-0.22,0.39c-0.12,0.17-0.19,0.34-0.22,0.51l-0.12,0.28l-0.25,0.15c-0.03,0.01-0.05,0.07-0.08,0.17     l-0.11,0.38c-0.05,0.19-0.19,0.33-0.43,0.43c-0.05,0.02-0.13,0-0.25-0.05c-0.12-0.06-0.22-0.1-0.32-0.13     c-0.1-0.03-0.33-0.16-0.71-0.37c-0.38-0.21-0.57-0.33-0.58-0.35l-0.11-0.47l-0.15-0.29c-0.02-0.06-0.02-0.17,0.01-0.32     c0.03-0.15,0.04-0.24,0.04-0.24l-0.23-0.48c0.01-0.02,0.02-0.06,0.02-0.1l0.06-0.36c-0.05-0.08-0.1-0.17-0.14-0.27l-0.12-0.44     c-0.12,0.13-0.2,0.32-0.23,0.57c-0.03,0.25-0.14,0.42-0.32,0.49c-0.04,0.35-0.11,0.54-0.2,0.57c-0.02,0.05-0.03,0.09-0.03,0.13     l-0.13,0.17l-0.23,0.06l0.05,0.35c-0.14,0.18-0.23,0.32-0.25,0.42c-0.02,0.1-0.07,0.22-0.16,0.35l-0.13,0.29l-0.2,0.08     c0.06,0.24,0.01,0.48-0.16,0.73l-0.05,0.17l-0.24,0.07c0.03,0.3-0.01,0.51-0.11,0.62c-0.14,0.06-0.28,0.27-0.43,0.63     c-0.14,0.36-0.26,0.56-0.36,0.61c-0.73,0.3-1.51,0.09-2.34-0.64c-0.03-0.03-0.1-0.07-0.2-0.14c-0.1-0.07-0.19-0.2-0.27-0.39     c-0.13-0.33-0.18-0.57-0.14-0.72c0.04-0.15,0.06-0.42,0.07-0.8c0.01-0.38,0.05-0.56,0.14-0.55c0-0.04-0.01-0.09-0.04-0.16     c0.07-0.21,0.09-0.36,0.05-0.45c-0.01-0.03-0.04-0.04-0.07-0.03c-0.02,0.01-0.06,0.05-0.12,0.14l-0.15,0.15     c-0.07,0.05-0.11,0.1-0.12,0.17c-0.01,0.06-0.05,0.14-0.12,0.22c-0.07,0.08-0.12,0.15-0.15,0.2l-0.04,0.02     c-0.07-0.03-0.12-0.04-0.13-0.03c0,0.16,0,0.26-0.02,0.3l-0.14,0.09c-0.11,0.27-0.19,0.42-0.24,0.44     c-0.03,0.01-0.12,0.02-0.26,0.01c-0.14-0.01-0.23-0.04-0.25-0.1l-0.11-0.53l-0.09-0.23c-0.01-0.02,0.01-0.06,0.06-0.14     c0.02-0.01,0.05-0.13,0.09-0.35C21.58,24.8,21.68,24.65,21.84,24.59"/>
			<path class="st12" d="M35.23,19.05l0.18-0.32c0.2-0.1,0.26-0.25,0.2-0.45c-0.06-0.2,0.01-0.43,0.21-0.68l0.06-0.28     c0.07-0.18,0.35-0.48,0.83-0.92c0.11-0.14,0.17-0.26,0.2-0.35c0.01-0.02,0.02-0.04,0.04-0.05l0.22-0.03     c0.11-0.04,0.24-0.13,0.39-0.26c0.15-0.13,0.3-0.23,0.46-0.29l0.52-0.24c0.03-0.01,0.11-0.02,0.24-0.01     c0.13,0.01,0.26-0.02,0.42-0.08c0.19-0.08,0.39-0.06,0.61,0.04c0.22,0.1,0.37,0.23,0.43,0.37c0.11,0.26,0.08,0.58-0.08,0.96     c-0.16,0.38-0.31,0.62-0.46,0.72c-0.08,0.2-0.16,0.34-0.22,0.41c-0.06,0.07-0.11,0.16-0.16,0.27c-0.05,0.11-0.1,0.18-0.15,0.2     c-0.03,0.01-0.06,0.01-0.09,0c-0.03-0.01-0.05-0.01-0.09,0c-0.13,0.06-0.21,0.28-0.24,0.67l-0.24,0.07     c-0.1,0.15-0.16,0.29-0.15,0.42c0,0.13-0.06,0.22-0.2,0.27c-0.18,0.44-0.33,0.68-0.44,0.73c-0.02,0.01-0.08,0.01-0.2,0.02     c-0.03,0.11-0.03,0.21,0.01,0.31c0.04,0.1,0,0.19-0.13,0.26l-0.1,0.22l-0.14,0.03l-0.14,0.37c-0.13,0.05-0.24,0.15-0.34,0.29     c0.03,0.11,0.05,0.25,0.08,0.42c0.03,0.17,0.05,0.26,0.06,0.28c0.1,0.24,0.37,0.27,0.82,0.09l0.57-0.34     c0.16-0.07,0.29-0.17,0.4-0.31c0.1-0.14,0.24-0.24,0.4-0.31c0.05-0.02,0.12-0.07,0.21-0.14l0.15,0c0.01-0.15,0.07-0.31,0.19-0.48     c0.12-0.17,0.22-0.27,0.32-0.31l0.1-0.13c-0.01-0.11,0.01-0.2,0.07-0.26l0.06-0.13c0.04-0.09,0.09-0.15,0.15-0.18l0.18-0.07     l0.04-0.05c0.01-0.26,0.1-0.45,0.26-0.56c0.17-0.11,0.25-0.22,0.27-0.32c0.01-0.1,0.07-0.19,0.18-0.25     c0.11-0.07,0.19-0.16,0.23-0.29c0.04-0.13,0.1-0.26,0.19-0.39c0.08-0.13,0.14-0.23,0.17-0.29c0.03-0.06,0.06-0.1,0.09-0.11     c0.05-0.02,0.09,0.01,0.12,0.08c0.03,0.08,0.06,0.11,0.1,0.09c0.03-0.01,0.04-0.04,0.03-0.07c-0.01-0.03-0.04-0.07-0.08-0.12     L42,17.47c-0.05-0.13-0.02-0.24,0.1-0.34l0.42-0.6c-0.06-0.18-0.05-0.31,0.02-0.37c0.07-0.06,0.11-0.12,0.14-0.18     c0.03-0.06,0.07-0.09,0.12-0.11c0.11-0.05,0.19,0,0.24,0.12l0.07,0.35l0.2,0.31c0.02,0.05,0.01,0.14-0.03,0.26     c-0.04,0.12-0.05,0.28-0.02,0.48c0.03,0.2,0.02,0.32-0.04,0.36l-0.08,0.03c-0.09,0.22-0.17,0.37-0.24,0.43     c-0.08,0.07-0.12,0.15-0.14,0.24l-0.23,0.67c-0.05,0.12-0.09,0.22-0.12,0.32c-0.03,0.09-0.06,0.14-0.1,0.16l-0.14-0.06     c-0.01-0.02-0.03-0.02-0.06,0c-0.08,0.03-0.12,0.11-0.1,0.22c0.02,0.11,0.01,0.22-0.02,0.32c-0.2,0.22-0.32,0.4-0.36,0.53     l-0.07,0.06l-0.23,0.09c-0.11,0.04-0.15,0.16-0.13,0.34c0.03,0.18-0.06,0.33-0.24,0.43c-0.19,0.11-0.31,0.22-0.36,0.33     c-0.01,0.02-0.04,0.06-0.09,0.1c-0.05,0.04-0.14,0.16-0.27,0.35l-0.91,0.81c-0.07,0.08-0.11,0.12-0.14,0.13l-0.33,0.2     c-0.05,0.02-0.12,0.01-0.19-0.04c-0.08-0.05-0.13-0.07-0.14-0.06l-0.2,0.17c-0.15,0.12-0.3,0.21-0.45,0.27     c-0.08,0.03-0.19,0.04-0.31,0.03c-0.13-0.02-0.22-0.03-0.29-0.03c-0.24,0.1-0.49-0.02-0.75-0.36l-0.14,0.09     c-0.03,0.01-0.27-0.24-0.71-0.76c-0.08-0.05-0.18-0.06-0.3-0.05c-0.12,0.02-0.21-0.04-0.27-0.18c-0.16-0.38-0.18-0.67-0.07-0.86     c0.11-0.2,0.16-0.33,0.15-0.41l-0.09-0.73c0.02-0.04,0.03-0.14,0.02-0.3l0.07-0.65C35.2,19.52,35.21,19.34,35.23,19.05      M37.59,17.2l-0.12,0.14c-0.03,0.03-0.1,0.15-0.21,0.34c-0.11,0.2-0.23,0.37-0.35,0.51c-0.12,0.14-0.2,0.42-0.22,0.82     c-0.03,0.4-0.03,0.63-0.01,0.68c0.02,0.05,0.06,0.07,0.11,0.04l0.35-0.37c0.13-0.14,0.24-0.3,0.33-0.47     c0.09-0.17,0.23-0.4,0.42-0.68l0.06-0.14c0-0.04,0.06-0.13,0.16-0.28c0.1-0.15,0.17-0.27,0.2-0.39l0.11-0.1     c0.05-0.29,0.14-0.48,0.26-0.6c0.13-0.11,0.18-0.19,0.16-0.24c-0.04-0.1-0.14-0.12-0.3-0.05c-0.07,0.03-0.15,0.11-0.25,0.25     L38,16.8c-0.03,0.01-0.11,0.1-0.22,0.27L37.59,17.2z"/>
			<path class="st12" d="M42.86,15.58l0.01-0.12c0.28-0.11,0.41-0.3,0.4-0.56l0.03-0.07c0.26-0.23,0.43-0.43,0.51-0.61     c0.08-0.18,0.26-0.4,0.56-0.65c0.3-0.25,0.45-0.38,0.47-0.38c0.05-0.02,0.23-0.01,0.55,0.04c0.32,0.05,0.56,0.28,0.74,0.7     c0.12,0.3,0.16,0.62,0.09,0.95l0.16,0.39l0.02,0.11c-0.1,0.16-0.13,0.3-0.07,0.43l0.04,0.1l0.18,0.36l-0.04,0.91     c-0.11,0.13-0.16,0.21-0.14,0.26c0.01,0.03,0.07,0.06,0.16,0.08c0.09,0.02,0.15,0.07,0.19,0.15c0.04,0.09,0.08,0.28,0.14,0.55     c0.02,0.01,0.04,0.01,0.06,0l0.05-0.02c0.01-0.08,0.05-0.16,0.14-0.23l0.09-0.14c-0.02-0.1-0.02-0.18,0.01-0.24l0.15-0.06     c0.07-0.03,0.07-0.11,0.02-0.24c-0.02-0.05,0.08-0.34,0.29-0.88c0.21-0.53,0.34-0.87,0.37-1.02c0.03-0.14,0.08-0.27,0.15-0.38     c0.06-0.11,0.09-0.21,0.07-0.29c-0.01-0.08,0-0.17,0.06-0.27c0.05-0.1,0.09-0.2,0.11-0.29c0.02-0.09,0.07-0.19,0.13-0.28     c0.07-0.1,0.12-0.24,0.16-0.42c0.04-0.18,0.16-0.47,0.36-0.86c0.03-0.06,0.06-0.16,0.08-0.3c0.02-0.14,0.1-0.3,0.23-0.49     c0.13-0.19,0.25-0.4,0.35-0.63c0.1-0.23,0.34-0.43,0.74-0.59c0.23-0.09,0.49-0.08,0.79,0.05c0.3,0.13,0.5,0.3,0.59,0.53     c0.05,0.12,0.06,0.22,0.05,0.3c-0.02,0.08-0.04,0.22-0.08,0.41c-0.03,0.19-0.09,0.3-0.18,0.34l-0.26,0.02     c-0.09,0.23-0.23,0.37-0.39,0.44l-0.26,0.05c-0.11,0.16-0.21,0.27-0.3,0.31c-0.09,0.05-0.15,0.13-0.17,0.25     c-0.02,0.12-0.07,0.2-0.14,0.24c-0.07,0.04-0.14,0.12-0.2,0.22l-0.16,0.18c0,0.24-0.11,0.47-0.35,0.69     c-0.06,0.14-0.1,0.3-0.13,0.47c0.01,0.03-0.02,0.08-0.08,0.15c-0.06,0.08-0.11,0.18-0.15,0.33c-0.04,0.14-0.08,0.23-0.14,0.25     l-0.11,0.05c-0.04,0.1-0.04,0.24-0.01,0.42c0.03,0.17-0.06,0.34-0.28,0.5c-0.03,0.03-0.05,0.11-0.08,0.25     c-0.02,0.13-0.09,0.25-0.19,0.37c0.03,0.21-0.02,0.42-0.14,0.6l-0.04,0.33c-0.01,0.1-0.06,0.22-0.14,0.35s-0.13,0.21-0.14,0.23     c0,0.02-0.01,0.15-0.03,0.4c-0.02,0.25-0.07,0.43-0.17,0.53c-0.1,0.11-0.18,0.25-0.24,0.43c-0.06,0.18-0.14,0.29-0.22,0.32     c-0.29,0.12-0.71,0.01-1.24-0.33c-0.53-0.34-0.83-0.58-0.88-0.7c-0.19-0.47-0.28-0.87-0.26-1.18c0.02-0.32,0-0.6-0.08-0.85     c-0.07-0.25-0.11-0.48-0.12-0.68l-0.09-0.42l0.03-0.22c0.03-0.09,0.04-0.23,0.01-0.4l-0.02-0.23c-0.06-0.15-0.14-0.21-0.23-0.17     c-0.12,0.05-0.19,0.17-0.21,0.35l-0.03,0.07c-0.23,0.04-0.35,0.06-0.36,0.06c-0.06,0.02-0.06,0.18,0,0.46     c0,0.1-0.06,0.19-0.18,0.27c-0.12,0.08-0.22,0.28-0.28,0.59l-0.04,0.08c-0.07,0.05-0.11,0.09-0.13,0.11     c-0.04,0.24-0.08,0.37-0.13,0.39c-0.05,0.02-0.12-0.01-0.22-0.08c-0.09-0.07-0.19-0.12-0.3-0.13c-0.1-0.02-0.17-0.06-0.2-0.14     c-0.08-0.19,0.01-0.52,0.26-0.98c0.06-0.1,0.08-0.19,0.07-0.25c-0.01-0.07,0.09-0.15,0.29-0.25     C42.82,15.89,42.84,15.78,42.86,15.58"/>
			<path class="st12" d="M61.64,10.4l0.13-0.26c0.13-0.05,0.18-0.14,0.16-0.26c-0.02-0.12,0.03-0.25,0.16-0.38     c0.13-0.13,0.22-0.33,0.27-0.59c0.05-0.26,0.15-0.42,0.29-0.48c0.05-0.02,0.13,0,0.23,0.05c0.1,0.06,0.16,0.11,0.18,0.16     c0.11,0.28,0.15,0.6,0.1,0.96l0.09,0.37l-0.02,0.2c-0.1,0.12-0.15,0.22-0.16,0.32c-0.01,0.09-0.07,0.22-0.18,0.4l-0.05,0.23     c-0.16,0.13-0.24,0.28-0.25,0.44c-0.01,0.16-0.07,0.27-0.17,0.34c-0.11,0.06-0.2,0.2-0.27,0.41c-0.07,0.08-0.15,0.16-0.26,0.24     l0.03,0.14c-0.05,0.12-0.15,0.24-0.31,0.36c-0.16,0.13-0.27,0.23-0.34,0.31c-0.07,0.08-0.12,0.13-0.15,0.14     c-0.16,0.07-0.32,0.09-0.48,0.09c-0.16-0.01-0.32,0.01-0.46,0.05c-0.07-0.03-0.12-0.07-0.16-0.13c-0.03-0.06-0.11-0.12-0.22-0.18     c-0.12-0.07-0.21-0.18-0.28-0.35l-0.05-0.26c-0.01-0.03-0.05-0.07-0.11-0.1c-0.06-0.03-0.1-0.07-0.11-0.1     c-0.01-0.03-0.02-0.06-0.01-0.09c0.01-0.02,0.01-0.05-0.01-0.09c-0.02-0.04-0.04-0.08-0.08-0.13c-0.04-0.04-0.06-0.08-0.08-0.12     l-0.18-0.65c-0.02-0.05-0.05-0.07-0.08-0.05c-0.03,0.01-0.08,0.08-0.13,0.2c-0.05,0.12-0.14,0.2-0.26,0.25     c-0.05,0.08-0.06,0.21-0.03,0.38c-0.03,0.11-0.09,0.22-0.16,0.33l-0.02,0.1c0.01,0.07-0.04,0.14-0.13,0.22     c-0.09,0.08-0.15,0.16-0.17,0.24l-0.07,0.18l-0.25,0.07c-0.01,0.02-0.03,0.12-0.05,0.28c-0.02,0.16-0.07,0.31-0.16,0.44     l-0.64,1.18c-0.07,0.11-0.19,0.25-0.34,0.43l-0.04,0.11c-0.49,0.72-0.87,1.14-1.15,1.25c-0.23,0.09-0.52,0.14-0.87,0.14     c-0.35,0-0.58-0.09-0.68-0.25l-0.34-0.47c-0.12-0.09-0.23-0.23-0.32-0.45c-0.04-0.1-0.06-0.17-0.06-0.21l-0.03-0.08l-0.2-0.41     c-0.04-0.1,0.02-0.18,0.18-0.25l-0.16-0.33c-0.01-0.03,0.01-0.2,0.06-0.49c0.05-0.29,0.1-0.46,0.13-0.52l0.06-0.22     c-0.05-0.1-0.04-0.23,0.04-0.39c0.08-0.17,0.13-0.32,0.16-0.47c0.03-0.15,0.12-0.34,0.27-0.57l0.22-0.53     c0.17-0.42,0.4-0.78,0.67-1.1c0.04-0.04,0.11-0.16,0.21-0.38c0.09-0.22,0.23-0.4,0.39-0.55c0.17-0.15,0.32-0.32,0.47-0.51     c0.14-0.19,0.27-0.3,0.38-0.35l0.1-0.04c0.03-0.01,0.21-0.21,0.54-0.59l0.08-0.03c0.03-0.01,0.13-0.01,0.28,0l0.03-0.01     l0.16-0.18c0.03-0.03,0.07-0.06,0.12-0.08c0.52-0.21,0.96,0.03,1.31,0.73c0.08,0.14,0.15,0.2,0.22,0.18     c0.08-0.03,0.14-0.24,0.17-0.61c0.03-0.37,0.3-0.66,0.8-0.87c0.36-0.15,0.64,0.01,0.83,0.47c0.22,0.55,0.19,1.17-0.09,1.85     c-0.01,0.08,0,0.17,0.02,0.26l0.04,0.59l0.01,0.03c0.02,0.05,0.01,0.13-0.02,0.25c-0.04,0.12-0.04,0.21-0.01,0.28l0.16,0.3     l0.09,0.37c0.07,0.16,0.14,0.25,0.22,0.28c0.24-0.18,0.39-0.37,0.45-0.57c0.06-0.21,0.11-0.33,0.15-0.36l0.11-0.1     C61.53,10.67,61.57,10.53,61.64,10.4 M57.45,12.12c-0.04-0.2,0-0.38,0.14-0.55c0.13-0.17,0.2-0.31,0.19-0.42     c0.11-0.18,0.25-0.49,0.43-0.91c0.17-0.43,0.25-0.67,0.22-0.74c-0.01-0.03-0.03-0.03-0.07-0.02l-0.03,0.01l-0.07,0.1l-0.24,0.07     l-0.23,0.12l-0.21-0.02l-0.15,0.09l-0.27,0.05c-0.13,0.06-0.24,0.13-0.31,0.22c-0.07,0.09-0.23,0.23-0.48,0.41     c-0.25,0.18-0.44,0.4-0.6,0.65c-0.15,0.25-0.28,0.4-0.38,0.44c-0.01,0.15-0.13,0.41-0.37,0.79c-0.17,0.15-0.24,0.35-0.21,0.6     c-0.15,0.27-0.21,0.41-0.2,0.44v0.25c-0.04,0.09-0.11,0.17-0.19,0.25c-0.09,0.08-0.11,0.19-0.07,0.34     c0.04,0.15,0.03,0.3-0.01,0.45c-0.05,0.15-0.06,0.26-0.03,0.33c0.17,0.41,0.33,0.59,0.49,0.52c0.07-0.03,0.19-0.13,0.37-0.31     s0.28-0.29,0.3-0.34c0.02-0.05,0.07-0.11,0.16-0.18l0.19-0.23c0.02-0.05,0.05-0.08,0.09-0.11c0.04-0.03,0.07-0.07,0.09-0.13     c0.02-0.06,0.08-0.15,0.17-0.24c0.09-0.1,0.14-0.21,0.16-0.32c0.11-0.14,0.29-0.37,0.53-0.68l0.18-0.31     c0.15-0.16,0.23-0.28,0.25-0.35C57.28,12.33,57.34,12.24,57.45,12.12"/>
		</g>
	</g>
</g>
<g id="Reticula" class="st80">
</g>
</svg>
